<?xml version="1.0" encoding="utf-8"?>
<!-- Generator: Adobe Illustrator 19.0.0, SVG Export Plug-In . SVG Version: 6.00 Build 0)  -->
<svg version="1.1" id="Layer_1" xmlns="http://www.w3.org/2000/svg" xmlns:xlink="http://www.w3.org/1999/xlink" x="0px" y="0px"
	 viewBox="0 0 100 100" style="enable-background:new 0 0 100 100;" xml:space="preserve">
<style type="text/css">
	.st0{fill:#232323;stroke:#EF60A3;stroke-width:8;stroke-miterlimit:10;}
	.st1{fill:#EF60A3;}
</style>
<rect id="XMLID_1_" class="st0" width="100" height="100"/>
<g id="XMLID_2_">
	<path id="XMLID_4_" class="st1" d="M39.1,61.9c-1,0.4-2,0.7-3,0.9s-1.9,0.3-3,0.3c-1.7,0-3.1-0.2-4.4-0.7s-2.3-1.2-3.2-2.2
		s-1.5-2.2-2-3.6s-0.7-3.1-0.7-5c0-1.9,0.2-3.7,0.7-5.2s1.2-2.8,2.1-3.8s2-1.8,3.3-2.4s2.8-0.8,4.4-0.8c0.5,0,1,0,1.5,0
		s0.9,0.1,1.4,0.1s0.9,0.1,1.4,0.3s0.9,0.2,1.4,0.4v4.3c-1-0.5-1.9-0.8-2.8-1s-1.7-0.3-2.5-0.3c-1.1,0-2,0.2-2.8,0.6
		s-1.4,0.9-1.9,1.7S28.3,47.1,28,48s-0.4,2.1-0.4,3.2c0,1.2,0.1,2.4,0.4,3.3s0.6,1.8,1.1,2.5s1.1,1.2,1.9,1.6s1.7,0.5,2.8,0.5
		c0.4,0,0.8,0,1.3-0.1s0.9-0.2,1.4-0.3s0.9-0.3,1.4-0.4s0.9-0.3,1.3-0.5V61.9z"/>
	<path id="XMLID_6_" class="st1" d="M59.2,55.8c0,1.3-0.2,2.3-0.7,3.3s-1.1,1.7-1.9,2.3s-1.8,1.1-3,1.3s-2.4,0.4-3.8,0.4
		c-1.2,0-2.4-0.1-3.5-0.2s-2.2-0.4-3.3-0.7V58c0.5,0.2,1.1,0.4,1.7,0.5s1.2,0.3,1.8,0.4s1.2,0.2,1.8,0.3s1.2,0.1,1.7,0.1
		c0.8,0,1.5-0.1,2.1-0.2s1-0.3,1.4-0.6s0.6-0.5,0.8-0.9s0.2-0.7,0.2-1.1c0-0.6-0.2-1-0.5-1.4s-0.7-0.7-1.3-1s-1.1-0.6-1.8-0.8
		s-1.4-0.5-2.1-0.8s-1.4-0.6-2.1-0.9s-1.3-0.8-1.8-1.3s-1-1.1-1.3-1.8s-0.5-1.5-0.5-2.5c0-0.9,0.2-1.8,0.5-2.6s0.8-1.5,1.5-2.1
		s1.6-1.1,2.7-1.4s2.4-0.5,4-0.5c0.5,0,0.9,0,1.4,0.1s1,0.1,1.5,0.2s1,0.1,1.4,0.2s0.9,0.2,1.2,0.3v4c-0.4-0.1-0.8-0.3-1.2-0.4
		s-0.9-0.2-1.4-0.3s-1-0.2-1.4-0.2s-0.9-0.1-1.4-0.1c-0.8,0-1.4,0.1-1.9,0.2s-1,0.3-1.3,0.5s-0.6,0.5-0.7,0.8s-0.2,0.7-0.2,1.1
		c0,0.5,0.2,0.9,0.5,1.2s0.8,0.7,1.3,0.9s1.1,0.5,1.8,0.8s1.4,0.5,2.1,0.8s1.4,0.6,2.1,0.9s1.3,0.8,1.8,1.3s1,1.1,1.3,1.8
		S59.2,54.9,59.2,55.8z"/>
	<path id="XMLID_8_" class="st1" d="M79,55.8c0,1.3-0.2,2.3-0.7,3.3s-1.1,1.7-1.9,2.3s-1.8,1.1-3,1.3s-2.4,0.4-3.8,0.4
		c-1.2,0-2.4-0.1-3.5-0.2s-2.2-0.4-3.3-0.7V58c0.5,0.2,1.1,0.4,1.7,0.5s1.2,0.3,1.8,0.4s1.2,0.2,1.8,0.3s1.2,0.1,1.7,0.1
		c0.8,0,1.5-0.1,2.1-0.2s1-0.3,1.4-0.6s0.6-0.5,0.8-0.9s0.2-0.7,0.2-1.1c0-0.6-0.2-1-0.5-1.4s-0.7-0.7-1.3-1s-1.1-0.6-1.8-0.8
		s-1.4-0.5-2.1-0.8s-1.4-0.6-2.1-0.9s-1.3-0.8-1.8-1.3s-1-1.1-1.3-1.8S63,47,63,46.1c0-0.9,0.2-1.8,0.5-2.6s0.8-1.5,1.5-2.1
		s1.6-1.1,2.7-1.4s2.4-0.5,4-0.5c0.5,0,0.9,0,1.4,0.1s1,0.1,1.5,0.2s1,0.1,1.4,0.2s0.9,0.2,1.2,0.3v4c-0.4-0.1-0.8-0.3-1.2-0.4
		s-0.9-0.2-1.4-0.3s-1-0.2-1.4-0.2s-0.9-0.1-1.4-0.1c-0.8,0-1.4,0.1-1.9,0.2s-1,0.3-1.3,0.5s-0.6,0.5-0.7,0.8s-0.2,0.7-0.2,1.1
		c0,0.5,0.2,0.9,0.5,1.2s0.8,0.7,1.3,0.9s1.1,0.5,1.8,0.8s1.4,0.5,2.1,0.8s1.4,0.6,2.1,0.9s1.3,0.8,1.8,1.3s1,1.1,1.3,1.8
		S79,54.9,79,55.8z"/>
</g>
</svg>
