<?xml version="1.0" encoding="utf-8"?>
<!-- Generator: Adobe Illustrator 19.0.0, SVG Export Plug-In . SVG Version: 6.00 Build 0)  -->
<svg version="1.1" id="Layer_1" xmlns="http://www.w3.org/2000/svg" xmlns:xlink="http://www.w3.org/1999/xlink" x="0px" y="0px"
	 viewBox="0 0 100 100" style="enable-background:new 0 0 100 100;" xml:space="preserve">
<style type="text/css">
	.st0{fill:#232323;stroke:#FFB26A;stroke-width:8;stroke-miterlimit:10;}
	.st1{enable-background:new    ;}
	.st2{fill:#FFB26A;}
</style>
<rect id="XMLID_1_" class="st0" width="100" height="100"/>
<g id="XMLID_2_" class="st1">
	<path class="st2" d="M26.3,61V51h-7.8v10h-4.3V38h4.3v9.2h7.8V38h4.3v23H26.3z"/>
	<path class="st2" d="M44.4,41.6V61H40V41.6h-6.3V38h17v3.6H44.4z"/>
	<path class="st2" d="M67.3,61l-0.4-13l-0.2-5.2l-1.1,3.5L63,54.2h-2.7L58,46.3l-1-3.5l-0.1,5.1L56.6,61h-3.7L54,38h4.9l2,6.5l1,3.7
		l1-3.5L65,38h5l1.1,23H67.3z"/>
	<path class="st2" d="M75.3,61V38h4.4v19.3h9.7V61H75.3z"/>
</g>
</svg>
